<svg xmlns="http://www.w3.org/2000/svg" xmlns:xlink="http://www.w3.org/1999/xlink" width="400" zoomAndPan="magnify" viewBox="0 0 300 112.499997" height="150" preserveAspectRatio="xMidYMid meet" version="1.0"><defs><g/><clipPath id="7df5e32144"><path d="M 275 37 L 299.335938 37 L 299.335938 64 L 275 64 Z M 275 37 " clip-rule="nonzero"/></clipPath></defs><g fill="#000000" fill-opacity="1"><g transform="translate(2.324347, 89.767602)"><g><path d="M 57.34375 -66.78125 L 57.34375 -26.71875 C 57.34375 -22.832031 56.609375 -19.171875 55.140625 -15.734375 C 53.679688 -12.304688 51.644531 -9.285156 49.03125 -6.671875 C 46.425781 -4.066406 43.421875 -2.03125 40.015625 -0.5625 C 36.617188 0.894531 32.945312 1.625 29 1.625 C 25.125 1.625 21.46875 0.894531 18.03125 -0.5625 C 14.59375 -2.03125 11.585938 -4.066406 9.015625 -6.671875 C 6.441406 -9.285156 4.421875 -12.304688 2.953125 -15.734375 C 1.492188 -19.171875 0.765625 -22.832031 0.765625 -26.71875 C 0.765625 -30.65625 1.492188 -34.328125 2.953125 -37.734375 C 4.421875 -41.140625 6.441406 -44.144531 9.015625 -46.75 C 11.585938 -49.351562 14.59375 -51.382812 18.03125 -52.84375 C 21.46875 -54.3125 25.125 -55.046875 29 -55.046875 L 32.53125 -55.046875 L 32.53125 -31.578125 L 29 -31.578125 C 27.664062 -31.578125 26.535156 -31.097656 25.609375 -30.140625 C 24.691406 -29.191406 24.234375 -28.050781 24.234375 -26.71875 C 24.234375 -25.375 24.691406 -24.222656 25.609375 -23.265625 C 26.535156 -22.316406 27.664062 -21.84375 29 -21.84375 C 30.40625 -21.84375 31.566406 -22.316406 32.484375 -23.265625 C 33.410156 -24.222656 33.875 -25.375 33.875 -26.71875 L 33.875 -66.78125 Z M 57.34375 -66.78125 "/></g></g></g><g fill="#000000" fill-opacity="1"><g transform="translate(60.613893, 89.767602)"><g><path d="M 32.921875 -53.515625 L 56.578125 -53.515625 L 56.578125 -26.140625 C 56.578125 -21.554688 55.796875 -17.53125 54.234375 -14.0625 C 52.679688 -10.601562 50.566406 -7.710938 47.890625 -5.390625 C 45.222656 -3.066406 42.234375 -1.332031 38.921875 -0.1875 C 35.617188 0.957031 32.25 1.53125 28.8125 1.53125 C 25.3125 1.53125 21.90625 0.957031 18.59375 -0.1875 C 15.289062 -1.332031 12.300781 -3.066406 9.625 -5.390625 C 6.957031 -7.710938 4.84375 -10.601562 3.28125 -14.0625 C 1.726562 -17.53125 0.953125 -21.554688 0.953125 -26.140625 L 0.953125 -53.515625 L 24.609375 -53.515625 L 24.609375 -27.09375 C 24.609375 -25.4375 25.050781 -24.195312 25.9375 -23.375 C 26.832031 -22.550781 27.789062 -22.140625 28.8125 -22.140625 C 29.832031 -22.140625 30.769531 -22.550781 31.625 -23.375 C 32.488281 -24.195312 32.921875 -25.4375 32.921875 -27.09375 Z M 32.921875 -53.515625 "/></g></g></g><g fill="#000000" fill-opacity="1"><g transform="translate(118.140236, 89.767602)"><g><path d="M 25.953125 0 C 21.054688 0 16.710938 -0.90625 12.921875 -2.71875 C 9.140625 -4.53125 6.179688 -7.25 4.046875 -10.875 C 1.921875 -14.5 0.859375 -19.046875 0.859375 -24.515625 L 0.859375 -66.875 L 24.328125 -66.875 L 24.328125 -53.515625 L 40.640625 -53.515625 L 40.640625 -31.390625 L 24.328125 -31.390625 L 24.328125 -23.46875 C 24.328125 -22.644531 24.738281 -22.234375 25.5625 -22.234375 L 40.640625 -22.234375 L 40.640625 0 Z M 25.953125 0 "/></g></g></g><g fill="#000000" fill-opacity="1"><g transform="translate(159.830136, 89.767602)"><g><path d="M 29.1875 -55.046875 C 33.007812 -55.046875 36.617188 -54.328125 40.015625 -52.890625 C 43.421875 -51.460938 46.410156 -49.492188 48.984375 -46.984375 C 51.566406 -44.472656 53.617188 -41.53125 55.140625 -38.15625 C 56.671875 -34.789062 57.46875 -31.195312 57.53125 -27.375 L 33.96875 -27.375 C 33.84375 -28.582031 33.332031 -29.582031 32.4375 -30.375 C 31.550781 -31.175781 30.46875 -31.578125 29.1875 -31.578125 C 27.851562 -31.578125 26.707031 -31.097656 25.75 -30.140625 C 24.800781 -29.191406 24.328125 -28.050781 24.328125 -26.71875 C 24.328125 -25.375 24.800781 -24.222656 25.75 -23.265625 C 26.707031 -22.316406 27.851562 -21.84375 29.1875 -21.84375 C 30.46875 -21.84375 31.550781 -22.238281 32.4375 -23.03125 C 33.332031 -23.832031 33.84375 -24.835938 33.96875 -26.046875 L 57.53125 -26.046875 C 57.46875 -22.234375 56.671875 -18.640625 55.140625 -15.265625 C 53.617188 -11.890625 51.566406 -8.914062 48.984375 -6.34375 C 46.410156 -3.769531 43.421875 -1.75 40.015625 -0.28125 C 36.617188 1.175781 33.007812 1.90625 29.1875 1.90625 C 25.3125 1.90625 21.65625 1.160156 18.21875 -0.328125 C 14.789062 -1.828125 11.769531 -3.894531 9.15625 -6.53125 C 6.550781 -9.175781 4.515625 -12.226562 3.046875 -15.6875 C 1.585938 -19.15625 0.859375 -22.832031 0.859375 -26.71875 C 0.859375 -30.65625 1.585938 -34.328125 3.046875 -37.734375 C 4.515625 -41.140625 6.550781 -44.144531 9.15625 -46.75 C 11.769531 -49.351562 14.789062 -51.382812 18.21875 -52.84375 C 21.65625 -54.3125 25.3125 -55.046875 29.1875 -55.046875 Z M 29.1875 -55.046875 "/></g></g></g><g fill="#000000" fill-opacity="1"><g transform="translate(218.215068, 89.767602)"><g><path d="M 28.4375 -53.515625 C 33.332031 -53.515625 37.894531 -52.59375 42.125 -50.75 C 46.351562 -48.90625 49.753906 -45.992188 52.328125 -42.015625 C 54.898438 -38.046875 56.1875 -32.878906 56.1875 -26.515625 L 56.1875 0 L 32.921875 0 L 32.921875 -26.515625 C 32.921875 -28.046875 32.488281 -29.222656 31.625 -30.046875 C 30.769531 -30.878906 29.785156 -31.328125 28.671875 -31.390625 C 27.554688 -31.453125 26.566406 -31.082031 25.703125 -30.28125 C 24.847656 -29.488281 24.421875 -28.234375 24.421875 -26.515625 L 24.421875 0 L 0.953125 0 L 0.953125 -66.875 L 24.421875 -66.875 L 24.421875 -53.234375 C 25.753906 -53.421875 27.09375 -53.515625 28.4375 -53.515625 Z M 28.4375 -53.515625 "/></g></g></g><g fill="#000000" fill-opacity="1"><g transform="translate(243.100449, 36.196804)"><g><path d="M 20.734375 -12.953125 C 20.671875 -12.453125 20.582031 -11.972656 20.46875 -11.515625 C 20.125 -10.234375 19.539062 -9.078125 18.71875 -8.046875 C 18.269531 -7.566406 17.832031 -7.15625 17.40625 -6.8125 C 17.5 -6.894531 17.566406 -7.019531 17.609375 -7.1875 C 17.660156 -7.363281 17.6875 -7.503906 17.6875 -7.609375 C 17.6875 -7.710938 17.703125 -7.828125 17.734375 -7.953125 C 17.765625 -8.078125 17.804688 -8.128906 17.859375 -8.109375 L 17.828125 -8.125 C 17.867188 -8.269531 17.882812 -8.382812 17.875 -8.46875 C 17.90625 -8.613281 17.984375 -8.722656 18.109375 -8.796875 C 17.972656 -8.859375 17.941406 -8.929688 18.015625 -9.015625 C 18.035156 -9.109375 18.039062 -9.171875 18.03125 -9.203125 L 17.40625 -6.8125 C 16.664062 -6.207031 15.828125 -5.785156 14.890625 -5.546875 L 14.859375 -5.5625 C 13.609375 -5.25 12.269531 -5.085938 10.84375 -5.078125 C 10.40625 -5.035156 9.835938 -5.050781 9.140625 -5.125 L 8.828125 -5.140625 L 8.53125 -5.171875 L 8.484375 -5.1875 C 8.492188 -5.238281 8.484375 -5.269531 8.453125 -5.28125 C 8.335938 -5.3125 8.269531 -5.289062 8.25 -5.21875 C 8.25 -5.195312 8.257812 -5.179688 8.28125 -5.171875 L 7.1875 -5.3125 L 5.390625 0.6875 C 5.273438 1.144531 4.988281 1.3125 4.53125 1.1875 L 0.34375 0.09375 C 0.132812 0.0390625 -0.0078125 -0.0664062 -0.09375 -0.234375 C -0.1875 -0.410156 -0.207031 -0.597656 -0.15625 -0.796875 L 0.640625 -3.328125 L 0.703125 -3.234375 C 0.773438 -3.242188 0.910156 -3.28125 1.109375 -3.34375 L 1.03125 -3.4375 L 0.84375 -3.484375 L 0.671875 -3.4375 L 1.21875 -5.203125 L 1.328125 -5.1875 C 1.335938 -5.238281 1.316406 -5.269531 1.265625 -5.28125 L 1.25 -5.296875 L 6.25 -21.203125 C 6.382812 -21.535156 6.613281 -21.691406 6.9375 -21.671875 C 11.363281 -21.421875 13.847656 -21.265625 14.390625 -21.203125 C 14.484375 -21.179688 14.609375 -21.15625 14.765625 -21.125 C 14.929688 -21.09375 15.125 -21.078125 15.34375 -21.078125 L 16.265625 -20.859375 L 16.296875 -20.859375 C 18.035156 -20.296875 19.28125 -19.304688 20.03125 -17.890625 C 20.78125 -16.484375 21.015625 -14.835938 20.734375 -12.953125 Z M 7.03125 -19.40625 L 7.0625 -19.5 L 7 -19.515625 L 6.96875 -19.421875 Z M 8.890625 -10.671875 C 9.640625 -10.578125 10.207031 -10.53125 10.59375 -10.53125 C 11.800781 -10.59375 12.753906 -10.789062 13.453125 -11.125 C 13.972656 -11.375 14.378906 -11.773438 14.671875 -12.328125 C 14.722656 -12.429688 14.78125 -12.597656 14.84375 -12.828125 C 15.007812 -13.484375 15.015625 -14.109375 14.859375 -14.703125 C 14.710938 -15.304688 14.363281 -15.679688 13.8125 -15.828125 C 13.675781 -15.867188 13.570312 -15.882812 13.5 -15.875 L 10.671875 -16.046875 Z M 17.390625 -14.671875 L 17.375 -14.609375 L 17.515625 -14.5625 L 17.53125 -14.625 Z M 15.484375 -14.875 C 15.453125 -14.851562 15.429688 -14.832031 15.421875 -14.8125 C 15.421875 -14.800781 15.429688 -14.796875 15.453125 -14.796875 C 15.460938 -14.734375 15.488281 -14.695312 15.53125 -14.6875 C 15.582031 -14.675781 15.613281 -14.695312 15.625 -14.75 L 15.71875 -14.75 Z M 5.96875 -17.03125 L 6.015625 -17.203125 L 5.953125 -17.21875 L 5.90625 -17.046875 Z M 16.421875 -14.265625 L 16.453125 -14.375 L 16.34375 -14.40625 L 16.3125 -14.296875 Z M 16.328125 -13.09375 C 16.359375 -13.207031 16.289062 -13.335938 16.125 -13.484375 L 16.015625 -13.078125 C 16.109375 -13.046875 16.210938 -13.050781 16.328125 -13.09375 Z M 16.234375 -12.390625 C 16.335938 -12.453125 16.394531 -12.5 16.40625 -12.53125 L 16.359375 -12.71875 L 16.21875 -12.640625 C 16.21875 -12.640625 16.207031 -12.640625 16.1875 -12.640625 C 16.175781 -12.640625 16.171875 -12.640625 16.171875 -12.640625 L 16.140625 -12.640625 C 16.035156 -12.609375 15.953125 -12.582031 15.890625 -12.5625 Z M 16.6875 -11.984375 C 16.664062 -12.148438 16.644531 -12.238281 16.625 -12.25 L 16.5625 -12.296875 L 16.484375 -12.28125 C 16.460938 -12.1875 16.5 -12.128906 16.59375 -12.109375 Z M 15.34375 -11.796875 C 15.351562 -11.847656 15.347656 -11.894531 15.328125 -11.9375 L 15.265625 -11.984375 L 15.140625 -12.015625 L 15.109375 -11.859375 Z M 15.15625 -11.421875 C 15.269531 -11.472656 15.332031 -11.53125 15.34375 -11.59375 C 15.25 -11.625 15.195312 -11.65625 15.1875 -11.6875 L 15.03125 -11.609375 C 14.945312 -11.554688 14.910156 -11.523438 14.921875 -11.515625 Z M 15.578125 -11.359375 C 15.765625 -11.304688 15.867188 -11.335938 15.890625 -11.453125 L 15.609375 -11.53125 Z M 18.390625 -10.140625 C 18.421875 -10.160156 18.441406 -10.195312 18.453125 -10.25 C 18.472656 -10.34375 18.453125 -10.457031 18.390625 -10.59375 C 18.335938 -10.550781 18.328125 -10.503906 18.359375 -10.453125 C 18.335938 -10.378906 18.316406 -10.335938 18.296875 -10.328125 L 18.0625 -10.390625 C 18.09375 -10.296875 18.0625 -10.265625 17.96875 -10.296875 C 17.96875 -10.296875 18.023438 -10.253906 18.140625 -10.171875 L 18.296875 -10.109375 C 18.296875 -10.109375 18.304688 -10.113281 18.328125 -10.125 C 18.347656 -10.144531 18.367188 -10.148438 18.390625 -10.140625 Z M 15.3125 -11.109375 C 15.46875 -10.984375 15.613281 -10.90625 15.75 -10.875 C 15.644531 -11.019531 15.59375 -11.09375 15.59375 -11.09375 C 15.476562 -11.125 15.40625 -11.132812 15.375 -11.125 Z M 15.453125 -10.921875 L 15.3125 -10.890625 L 15.484375 -10.6875 L 15.5625 -10.75 Z M 18.21875 -10.0625 L 18.015625 -9.265625 L 18.125 -9.234375 L 18.328125 -10.03125 Z M 14.53125 -10.015625 C 14.445312 -10.160156 14.351562 -10.28125 14.25 -10.375 Z M 14.453125 -8.640625 L 14.4375 -8.578125 L 14.78125 -8.484375 L 14.796875 -8.546875 Z M 13.765625 -8.359375 C 13.773438 -8.390625 13.753906 -8.425781 13.703125 -8.46875 C 13.660156 -8.519531 13.613281 -8.554688 13.5625 -8.578125 L 13.453125 -8.40625 Z M 12.921875 -8.578125 L 13.125 -8.53125 L 13.140625 -8.578125 L 12.9375 -8.625 Z M 5.265625 -10.046875 C 5.242188 -10.117188 5.203125 -10.1875 5.140625 -10.25 C 5.078125 -10.3125 5.050781 -10.363281 5.0625 -10.40625 C 4.976562 -10.363281 4.910156 -10.351562 4.859375 -10.375 C 4.847656 -10.34375 4.816406 -10.332031 4.765625 -10.34375 C 4.929688 -10.269531 5.039062 -10.1875 5.09375 -10.09375 Z M 12.921875 -8.3125 C 12.867188 -8.28125 12.84375 -8.265625 12.84375 -8.265625 L 12.8125 -8.265625 C 12.75 -8.253906 12.710938 -8.226562 12.703125 -8.1875 C 12.679688 -8.125 12.679688 -8.085938 12.703125 -8.078125 L 12.75 -8.0625 C 12.78125 -8.007812 12.832031 -7.976562 12.90625 -7.96875 C 13.019531 -7.9375 13.097656 -7.945312 13.140625 -8 L 13.1875 -8.171875 Z M 4.546875 -10.234375 L 4.640625 -10.3125 C 4.671875 -10.320312 4.695312 -10.351562 4.71875 -10.40625 L 4.53125 -10.453125 L 4.5 -10.375 Z M 9.578125 -9.03125 L 9.484375 -9.0625 L 9.453125 -8.90625 L 9.546875 -8.875 Z M 4.609375 -9.78125 C 4.703125 -9.757812 4.785156 -9.75 4.859375 -9.75 C 5.003906 -9.757812 5.09375 -9.757812 5.125 -9.75 L 4.96875 -9.9375 C 4.882812 -10 4.835938 -10.035156 4.828125 -10.046875 C 4.785156 -10.054688 4.710938 -10.050781 4.609375 -10.03125 L 4.390625 -9.9375 C 4.429688 -9.90625 4.460938 -9.878906 4.484375 -9.859375 C 4.503906 -9.847656 4.503906 -9.84375 4.484375 -9.84375 Z M 13.5625 -7.703125 L 13.453125 -7.546875 L 13.5625 -7.484375 L 13.6875 -7.609375 Z M 11.21875 -7.765625 C 11.164062 -7.785156 11.113281 -7.785156 11.0625 -7.765625 C 11.019531 -7.742188 10.988281 -7.707031 10.96875 -7.65625 L 11.203125 -7.578125 L 11.15625 -7.40625 L 11.359375 -7.359375 L 11.46875 -7.359375 C 11.40625 -7.472656 11.316406 -7.546875 11.203125 -7.578125 L 11.265625 -7.65625 C 11.265625 -7.675781 11.25 -7.710938 11.21875 -7.765625 Z M 12.4375 -7.25 C 12.4375 -7.257812 12.425781 -7.269531 12.40625 -7.28125 L 12.4375 -7.359375 C 12.4375 -7.359375 12.425781 -7.363281 12.40625 -7.375 C 12.394531 -7.394531 12.390625 -7.40625 12.390625 -7.40625 L 12.15625 -7.328125 Z M 4.328125 -9.484375 L 4.25 -9.5 L 4.28125 -9.21875 L 4.34375 -9.203125 Z M 11.75 -7.171875 C 11.8125 -7.203125 11.847656 -7.238281 11.859375 -7.28125 C 11.867188 -7.332031 11.851562 -7.382812 11.8125 -7.4375 L 11.578125 -7.484375 C 11.597656 -7.316406 11.65625 -7.210938 11.75 -7.171875 Z M 4.265625 -9.140625 L 4.125 -9.046875 L 4.1875 -9 L 4.328125 -9.125 Z M 9.578125 -7.734375 L 9.515625 -7.5 L 9.78125 -7.46875 Z M 5.09375 -8.875 L 5.046875 -8.703125 L 5.265625 -8.65625 L 5.3125 -8.828125 Z M 11.40625 -7.078125 C 11.269531 -7.046875 11.140625 -6.984375 11.015625 -6.890625 L 11.296875 -6.8125 L 11.78125 -6.578125 L 11.796875 -6.65625 L 11.765625 -6.6875 L 11.75 -6.765625 L 11.71875 -6.765625 L 11.6875 -6.75 L 11.53125 -6.75 L 11.390625 -6.78125 Z M 11.96875 -6.359375 C 11.988281 -6.441406 11.953125 -6.535156 11.859375 -6.640625 C 11.773438 -6.554688 11.738281 -6.46875 11.75 -6.375 L 11.890625 -6.34375 Z M 11.015625 -6.1875 C 11.085938 -6.164062 11.132812 -6.128906 11.15625 -6.078125 C 11.320312 -6.203125 11.410156 -6.28125 11.421875 -6.3125 L 11.40625 -6.46875 C 11.40625 -6.46875 11.382812 -6.5 11.34375 -6.5625 L 11.265625 -6.578125 L 11.234375 -6.578125 C 11.234375 -6.578125 11.226562 -6.570312 11.21875 -6.5625 C 11.207031 -6.5625 11.203125 -6.5625 11.203125 -6.5625 L 11.109375 -6.546875 Z M 3.515625 -8.421875 L 3.6875 -8.390625 L 3.671875 -8.453125 C 3.671875 -8.453125 3.644531 -8.5 3.59375 -8.59375 L 3.5625 -8.484375 Z M 12.109375 -6.015625 L 12.078125 -5.90625 L 12.375 -5.921875 L 12.390625 -6.015625 Z M 8.84375 -6.75 C 8.695312 -6.65625 8.617188 -6.585938 8.609375 -6.546875 L 8.75 -6.390625 L 8.984375 -6.5 Z M 11.421875 -5.921875 C 11.398438 -5.847656 11.445312 -5.796875 11.5625 -5.765625 L 11.625 -5.75 C 11.644531 -5.757812 11.664062 -5.800781 11.6875 -5.875 L 11.71875 -5.984375 C 11.539062 -6.035156 11.441406 -6.015625 11.421875 -5.921875 Z M 4.5 -7.84375 L 4.265625 -7.828125 L 4.25 -7.75 L 4.515625 -7.765625 Z M 11.734375 -5.46875 C 11.796875 -5.519531 11.8125 -5.570312 11.78125 -5.625 C 11.644531 -5.613281 11.570312 -5.578125 11.5625 -5.515625 Z M 11.421875 -5.484375 C 11.429688 -5.535156 11.40625 -5.585938 11.34375 -5.640625 C 11.226562 -5.660156 11.160156 -5.628906 11.140625 -5.546875 Z M 3.5625 -7.46875 L 3.515625 -7.265625 L 3.59375 -7.25 L 3.640625 -7.453125 Z M 8.296875 -5.8125 L 8.265625 -5.671875 L 8.46875 -5.625 L 8.5 -5.765625 Z M 3.5 -7.046875 C 3.445312 -6.960938 3.398438 -6.890625 3.359375 -6.828125 C 3.328125 -6.765625 3.285156 -6.707031 3.234375 -6.65625 C 3.191406 -6.582031 3.148438 -6.515625 3.109375 -6.453125 C 3.078125 -6.390625 3.050781 -6.328125 3.03125 -6.265625 C 3.019531 -6.210938 3.019531 -6.175781 3.03125 -6.15625 C 3.0625 -6.101562 3.066406 -6.0625 3.046875 -6.03125 C 2.921875 -6.039062 2.863281 -5.984375 2.875 -5.859375 C 2.894531 -5.710938 2.875 -5.625 2.8125 -5.59375 C 2.8125 -5.59375 2.785156 -5.570312 2.734375 -5.53125 C 2.734375 -5.53125 2.722656 -5.523438 2.703125 -5.515625 C 2.691406 -5.503906 2.6875 -5.5 2.6875 -5.5 C 2.644531 -5.5 2.613281 -5.476562 2.59375 -5.4375 C 2.582031 -5.394531 2.585938 -5.359375 2.609375 -5.328125 C 2.609375 -5.328125 2.609375 -5.304688 2.609375 -5.265625 C 2.609375 -5.222656 2.582031 -5.203125 2.53125 -5.203125 L 2.46875 -5.171875 L 2.421875 -5.171875 C 2.460938 -5.046875 2.460938 -4.953125 2.421875 -4.890625 C 2.265625 -4.671875 2.195312 -4.507812 2.21875 -4.40625 C 2.226562 -4.351562 2.222656 -4.304688 2.203125 -4.265625 C 2.179688 -4.234375 2.160156 -4.222656 2.140625 -4.234375 C 2.066406 -4.140625 2.007812 -4.007812 1.96875 -3.84375 C 1.925781 -3.6875 1.90625 -3.570312 1.90625 -3.5 C 1.820312 -3.488281 1.765625 -3.457031 1.734375 -3.40625 L 1.5625 -3.265625 L 1.53125 -3.171875 C 1.445312 -2.847656 1.378906 -2.632812 1.328125 -2.53125 C 1.234375 -2.382812 1.164062 -2.257812 1.125 -2.15625 C 1.09375 -2.050781 1.066406 -1.96875 1.046875 -1.90625 C 1.035156 -1.832031 1.015625 -1.78125 0.984375 -1.75 L 0.859375 -1.625 C 0.828125 -1.519531 0.800781 -1.347656 0.78125 -1.109375 C 0.757812 -0.867188 0.773438 -0.707031 0.828125 -0.625 C 0.941406 -0.53125 1.09375 -0.460938 1.28125 -0.421875 L 1.703125 -0.25 Z M 1.9375 -6.171875 L 1.96875 -6.28125 L 1.78125 -6.328125 L 1.75 -6.21875 Z M 1.796875 -5.609375 C 1.765625 -5.660156 1.707031 -5.695312 1.625 -5.71875 C 1.550781 -5.738281 1.507812 -5.726562 1.5 -5.6875 L 1.578125 -5.546875 C 1.648438 -5.523438 1.722656 -5.546875 1.796875 -5.609375 Z M 1.65625 -5.1875 C 1.707031 -5.175781 1.738281 -5.195312 1.75 -5.25 C 1.625 -5.332031 1.507812 -5.363281 1.40625 -5.34375 L 1.546875 -5.203125 Z M 1.578125 -4.921875 C 1.492188 -5.023438 1.460938 -5.113281 1.484375 -5.1875 L 1.421875 -5.09375 C 1.410156 -5.039062 1.382812 -5.003906 1.34375 -4.984375 Z M 4.53125 -3.828125 C 4.507812 -3.734375 4.515625 -3.632812 4.546875 -3.53125 L 4.640625 -3.921875 Z M 1.0625 -4.34375 L 1.03125 -4.234375 L 1.21875 -4.1875 L 1.25 -4.296875 Z M 4.34375 -3.09375 L 4.28125 -3.03125 C 4.269531 -2.976562 4.253906 -2.957031 4.234375 -2.96875 C 4.273438 -2.832031 4.269531 -2.769531 4.21875 -2.78125 C 4.207031 -2.8125 4.191406 -2.820312 4.171875 -2.8125 C 4.160156 -2.800781 4.15625 -2.785156 4.15625 -2.765625 C 4.132812 -2.671875 4.125 -2.59375 4.125 -2.53125 C 4.132812 -2.46875 4.148438 -2.382812 4.171875 -2.28125 L 4.515625 -3.4375 Z M 0.65625 -2.921875 L 0.53125 -2.921875 L 0.53125 -2.890625 L 0.671875 -2.875 Z M 4.609375 1.03125 L 4.53125 1.015625 L 4.546875 1.109375 L 4.609375 1.125 Z M 4.609375 1.03125 "/></g></g></g><g fill="#000000" fill-opacity="1"><g transform="translate(259.78537, 40.047042)"><g><path d="M 16.203125 10.765625 C 16.097656 10.921875 15.953125 11.019531 15.765625 11.0625 C 15.585938 11.101562 15.410156 11.0625 15.234375 10.9375 L 10.921875 7.84375 C 10.578125 7.59375 10.507812 7.28125 10.71875 6.90625 L 12.9375 3.21875 L 8.015625 0.984375 L 5.484375 3.15625 C 5.203125 3.382812 4.910156 3.390625 4.609375 3.171875 L 0.4375 0.0625 C 0.25 -0.0820312 0.148438 -0.257812 0.140625 -0.46875 C 0.128906 -0.6875 0.222656 -0.882812 0.421875 -1.0625 C 2.191406 -2.53125 4.460938 -4.316406 7.234375 -6.421875 C 8.703125 -7.523438 10.457031 -8.734375 12.5 -10.046875 C 14.382812 -11.265625 16.832031 -12.785156 19.84375 -14.609375 C 20.03125 -14.722656 20.253906 -14.734375 20.515625 -14.640625 L 21.203125 -14.328125 C 21.847656 -14.023438 22.335938 -13.785156 22.671875 -13.609375 C 22.867188 -13.523438 23.171875 -13.335938 23.578125 -13.046875 C 23.929688 -12.796875 24.1875 -12.59375 24.34375 -12.4375 C 25.207031 -11.707031 25.472656 -10.523438 25.140625 -8.890625 C 24.984375 -8.316406 24.707031 -7.515625 24.3125 -6.484375 C 23.84375 -5.273438 23.320312 -4.066406 22.75 -2.859375 L 16.28125 10.65625 Z M 20.15625 -13.59375 L 20.28125 -13.78125 L 20.15625 -13.859375 L 20.03125 -13.671875 Z M 23.078125 -10.375 L 23.25 -10.609375 L 23.171875 -10.671875 L 23 -10.4375 Z M 22.5 -10.03125 C 22.59375 -10.09375 22.664062 -10.160156 22.71875 -10.234375 C 22.625 -10.296875 22.585938 -10.335938 22.609375 -10.359375 L 22.46875 -10.1875 Z M 19.28125 -12.546875 L 19.015625 -12.171875 C 19.066406 -12.242188 19.191406 -12.320312 19.390625 -12.40625 L 19.296875 -12.46875 Z M 22.984375 -9.75 C 23.035156 -9.757812 23.078125 -9.753906 23.109375 -9.734375 L 22.8125 -10 L 22.71875 -9.875 C 22.726562 -9.851562 22.722656 -9.828125 22.703125 -9.796875 L 22.8125 -9.703125 C 22.820312 -9.710938 22.878906 -9.726562 22.984375 -9.75 Z M 22.671875 -9.8125 L 22.703125 -9.859375 L 22.71875 -10.015625 L 22.65625 -9.921875 Z M 23.109375 -9.265625 C 23.035156 -9.316406 22.921875 -9.300781 22.765625 -9.21875 L 22.78125 -9.125 L 23.15625 -8.84375 L 23.3125 -8.828125 C 23.257812 -8.929688 23.253906 -9.015625 23.296875 -9.078125 L 23.421875 -9.140625 C 23.273438 -9.179688 23.171875 -9.222656 23.109375 -9.265625 Z M 22.484375 -8.5625 C 22.398438 -8.613281 22.332031 -8.601562 22.28125 -8.53125 C 22.289062 -8.46875 22.320312 -8.414062 22.375 -8.375 C 22.40625 -8.351562 22.441406 -8.296875 22.484375 -8.203125 C 22.546875 -8.210938 22.582031 -8.222656 22.59375 -8.234375 L 22.671875 -8.28125 C 22.617188 -8.414062 22.554688 -8.507812 22.484375 -8.5625 Z M 19.984375 -9.953125 L 20.0625 -10.03125 L 20.046875 -10.046875 L 19.9375 -10.03125 Z M 20.078125 -9.453125 L 20.234375 -9.34375 C 20.242188 -9.3125 20.257812 -9.296875 20.28125 -9.296875 C 20.300781 -9.296875 20.320312 -9.285156 20.34375 -9.265625 C 20.394531 -9.335938 20.410156 -9.410156 20.390625 -9.484375 C 20.378906 -9.492188 20.359375 -9.5 20.328125 -9.5 C 20.304688 -9.507812 20.285156 -9.519531 20.265625 -9.53125 L 20.15625 -9.609375 Z M 22.3125 -7.3125 C 22.289062 -7.28125 22.222656 -7.28125 22.109375 -7.3125 C 22.066406 -7.332031 22.023438 -7.3125 21.984375 -7.25 C 21.960938 -7.238281 21.960938 -7.195312 21.984375 -7.125 L 22.15625 -7 C 22.25 -7 22.3125 -7.015625 22.34375 -7.046875 C 22.414062 -7.148438 22.40625 -7.238281 22.3125 -7.3125 Z M 15.21875 -10.6875 C 15.257812 -10.707031 15.222656 -10.71875 15.109375 -10.71875 C 15.003906 -10.71875 14.945312 -10.703125 14.9375 -10.671875 C 14.894531 -10.617188 14.875 -10.535156 14.875 -10.421875 C 14.875 -10.316406 14.878906 -10.253906 14.890625 -10.234375 C 14.941406 -10.273438 15.003906 -10.34375 15.078125 -10.4375 C 15.160156 -10.550781 15.207031 -10.632812 15.21875 -10.6875 Z M 16.875 -8.84375 C 16.875 -8.84375 16.878906 -8.84375 16.890625 -8.84375 C 16.910156 -8.851562 16.929688 -8.847656 16.953125 -8.828125 C 16.992188 -8.773438 17.039062 -8.757812 17.09375 -8.78125 L 16.984375 -8.953125 C 16.960938 -8.960938 16.9375 -8.945312 16.90625 -8.90625 Z M 14.34375 -9.546875 L 14.453125 -9.453125 L 14.703125 -9.78125 L 14.578125 -9.859375 Z M 17.828125 -7.34375 C 17.679688 -7.457031 17.519531 -7.472656 17.34375 -7.390625 C 17.300781 -7.222656 17.296875 -7.109375 17.328125 -7.046875 C 17.367188 -6.984375 17.472656 -6.941406 17.640625 -6.921875 L 17.859375 -7.109375 L 17.890625 -7.171875 C 17.898438 -7.191406 17.90625 -7.234375 17.90625 -7.296875 Z M 20.859375 -5.03125 L 21.0625 -4.890625 L 21.09375 -4.953125 L 20.890625 -5.09375 Z M 20.84375 -4.359375 C 20.914062 -4.453125 20.898438 -4.535156 20.796875 -4.609375 L 20.671875 -4.5625 L 20.6875 -4.46875 Z M 16.09375 -3 C 16.457031 -3.65625 16.71875 -4.164062 16.875 -4.53125 C 17.289062 -5.425781 17.597656 -6.109375 17.796875 -6.578125 L 13.109375 -2.984375 L 15.28125 -1.5 Z M 16.859375 -6.65625 L 16.890625 -6.578125 L 17.15625 -6.75 L 17.109375 -6.828125 Z M 19.640625 -4.65625 L 19.703125 -4.65625 L 19.703125 -4.75 L 19.59375 -4.78125 Z M 14.859375 -5.5625 C 14.953125 -5.5625 15.0625 -5.578125 15.1875 -5.609375 C 15.320312 -5.648438 15.414062 -5.695312 15.46875 -5.75 L 15.6875 -5.921875 L 16.40625 -6.3125 L 16.3125 -6.484375 L 16.078125 -6.46875 C 15.953125 -6.445312 15.878906 -6.445312 15.859375 -6.46875 C 15.503906 -6.164062 15.332031 -6.023438 15.34375 -6.046875 C 15.195312 -5.953125 15.113281 -5.914062 15.09375 -5.9375 C 15.0625 -5.894531 15.003906 -5.878906 14.921875 -5.890625 C 14.847656 -5.867188 14.769531 -5.820312 14.6875 -5.75 L 14.046875 -5.25 L 13.640625 -4.9375 C 13.453125 -4.800781 13.253906 -4.710938 13.046875 -4.671875 C 12.835938 -4.617188 12.679688 -4.550781 12.578125 -4.46875 C 12.484375 -4.394531 12.429688 -4.351562 12.421875 -4.34375 C 12.335938 -4.28125 12.257812 -4.203125 12.1875 -4.109375 C 12.070312 -4.015625 11.914062 -3.921875 11.71875 -3.828125 C 11.53125 -3.734375 11.40625 -3.660156 11.34375 -3.609375 C 11.25 -3.472656 11.21875 -3.390625 11.25 -3.359375 C 11.289062 -3.296875 11.34375 -3.257812 11.40625 -3.25 C 11.40625 -3.25 11.441406 -3.257812 11.515625 -3.28125 C 11.734375 -3.40625 11.914062 -3.53125 12.0625 -3.65625 C 12.195312 -3.800781 12.375 -3.898438 12.59375 -3.953125 C 12.632812 -4.003906 12.75 -4.050781 12.9375 -4.09375 L 13.28125 -4.328125 C 13.363281 -4.359375 13.53125 -4.46875 13.78125 -4.65625 C 14.03125 -4.84375 14.304688 -5.03125 14.609375 -5.21875 Z M 19.296875 -3.390625 C 19.296875 -3.390625 19.300781 -3.390625 19.3125 -3.390625 C 19.320312 -3.398438 19.328125 -3.40625 19.328125 -3.40625 L 19.15625 -3.578125 L 19.078125 -3.46875 L 19.25 -3.34375 Z M 19.671875 -2.734375 L 19.5625 -2.90625 L 19.515625 -2.84375 L 19.640625 -2.671875 Z M 18.1875 -3.578125 C 18.1875 -3.523438 18.203125 -3.484375 18.234375 -3.453125 C 18.273438 -3.421875 18.304688 -3.425781 18.328125 -3.46875 Z M 18.953125 -1.5 C 19.046875 -1.425781 19.125 -1.429688 19.1875 -1.515625 Z M 17.0625 -2.734375 C 17.070312 -2.742188 17.070312 -2.785156 17.0625 -2.859375 L 16.984375 -2.96875 L 16.890625 -2.859375 Z M 17.890625 -1.703125 C 17.992188 -1.878906 17.945312 -2.054688 17.75 -2.234375 C 17.6875 -2.253906 17.625 -2.21875 17.5625 -2.125 L 17.734375 -2 C 17.585938 -2.019531 17.523438 -1.960938 17.546875 -1.828125 L 17.8125 -1.640625 L 17.875 -1.734375 Z M 18.765625 -1.328125 C 18.878906 -1.242188 18.953125 -1.226562 18.984375 -1.28125 C 18.960938 -1.300781 18.953125 -1.316406 18.953125 -1.328125 C 18.953125 -1.335938 18.957031 -1.351562 18.96875 -1.375 L 18.890625 -1.421875 C 18.859375 -1.441406 18.832031 -1.4375 18.8125 -1.40625 Z M 18.390625 -1.59375 C 18.410156 -1.539062 18.429688 -1.503906 18.453125 -1.484375 L 18.5625 -1.515625 C 18.582031 -1.546875 18.53125 -1.609375 18.40625 -1.703125 Z M 18.53125 -1.015625 C 18.59375 -0.929688 18.640625 -0.875 18.671875 -0.84375 C 18.765625 -0.78125 18.878906 -0.742188 19.015625 -0.734375 C 18.992188 -0.859375 18.945312 -0.945312 18.875 -1 L 18.640625 -1.171875 Z M 17.53125 -1.234375 C 17.601562 -1.171875 17.644531 -1.128906 17.65625 -1.109375 L 17.828125 -0.984375 L 17.921875 -1.125 L 17.859375 -1.21875 C 17.859375 -1.25 17.835938 -1.28125 17.796875 -1.3125 C 17.671875 -1.34375 17.582031 -1.316406 17.53125 -1.234375 Z M 16.453125 -2.140625 L 16.40625 -2.09375 L 16.625 -1.9375 L 16.671875 -1.984375 Z M 18.875 -0.234375 C 18.914062 -0.316406 18.914062 -0.375 18.875 -0.40625 L 18.59375 -0.59375 C 18.4375 -0.59375 18.316406 -0.597656 18.234375 -0.609375 C 18.160156 -0.617188 18.117188 -0.613281 18.109375 -0.59375 C 18.054688 -0.519531 18.019531 -0.289062 18 0.09375 L 18.40625 0.375 L 18.53125 0.453125 C 18.539062 0.304688 18.507812 0.207031 18.4375 0.15625 C 18.363281 0.101562 18.304688 -0.0234375 18.265625 -0.234375 C 18.421875 -0.171875 18.523438 -0.15625 18.578125 -0.1875 C 18.628906 -0.21875 18.726562 -0.234375 18.875 -0.234375 Z M 11.921875 -5.25 L 11.671875 -5.046875 C 11.617188 -4.972656 11.609375 -4.894531 11.640625 -4.8125 C 11.765625 -4.863281 11.847656 -4.921875 11.890625 -4.984375 L 12.03125 -5.171875 Z M 17.46875 -1.046875 L 17.484375 -1.125 L 17.28125 -1.28125 L 17.203125 -1.171875 L 17.28125 -0.953125 L 17.296875 -0.96875 L 17.359375 -0.953125 L 17.421875 -0.90625 Z M 17.71875 -0.65625 C 17.71875 -0.65625 17.710938 -0.664062 17.703125 -0.6875 C 17.703125 -0.707031 17.703125 -0.71875 17.703125 -0.71875 L 17.65625 -0.75 L 17.453125 -0.375 C 17.578125 -0.40625 17.691406 -0.472656 17.796875 -0.578125 Z M 16.921875 -1.015625 C 16.910156 -1.054688 16.875 -1.085938 16.8125 -1.109375 C 16.75 -1.140625 16.707031 -1.160156 16.6875 -1.171875 L 16.671875 -0.96875 C 16.722656 -0.96875 16.789062 -0.941406 16.875 -0.890625 L 17.046875 -0.703125 C 17.085938 -0.679688 17.144531 -0.664062 17.21875 -0.65625 C 17.289062 -0.644531 17.335938 -0.660156 17.359375 -0.703125 Z M 16.421875 -0.90625 L 16.328125 -0.84375 L 16.375 -0.78125 L 16.46875 -0.859375 Z M 16.515625 -0.21875 C 16.566406 -0.226562 16.601562 -0.25 16.625 -0.28125 L 16.453125 -0.421875 L 16.359375 -0.421875 L 16.296875 -0.375 L 16.46875 -0.1875 C 16.488281 -0.21875 16.503906 -0.226562 16.515625 -0.21875 Z M 16.0625 -0.546875 C 16.132812 -0.484375 16.171875 -0.488281 16.171875 -0.5625 Z M 17.4375 0.90625 C 17.445312 0.894531 17.453125 0.835938 17.453125 0.734375 L 17.34375 0.703125 C 17.320312 0.691406 17.304688 0.695312 17.296875 0.71875 L 17.421875 0.890625 Z M 16.90625 1.125 C 16.90625 1.0625 16.929688 0.992188 16.984375 0.921875 C 16.992188 0.816406 17.007812 0.742188 17.03125 0.703125 C 16.945312 0.460938 16.832031 0.304688 16.6875 0.234375 C 16.65625 0.273438 16.664062 0.316406 16.71875 0.359375 C 16.789062 0.421875 16.800781 0.550781 16.75 0.75 L 16.625 0.921875 Z M 15.59375 -0.234375 L 15.515625 -0.125 L 15.59375 -0.078125 L 15.671875 -0.1875 Z M 18.03125 2.03125 L 18.046875 2 L 17.90625 1.84375 L 17.859375 1.90625 Z M 15.859375 0.6875 L 15.984375 0.78125 L 16.09375 0.640625 L 15.96875 0.546875 Z M 15.15625 0.375 L 15.203125 0.3125 L 15.125 0.25 L 15.078125 0.3125 Z M 14.015625 -0.328125 L 13.984375 -0.265625 L 14.125 -0.171875 L 14.15625 -0.234375 Z M 14.4375 0.671875 C 14.46875 0.648438 14.507812 0.601562 14.5625 0.53125 C 14.519531 0.5 14.429688 0.484375 14.296875 0.484375 L 14.40625 0.5625 Z M 15.34375 1.390625 C 15.175781 1.421875 15.09375 1.4375 15.09375 1.4375 C 15.15625 1.5625 15.226562 1.65625 15.3125 1.71875 C 15.519531 1.726562 15.644531 1.703125 15.6875 1.640625 C 15.695312 1.617188 15.691406 1.5625 15.671875 1.46875 C 15.617188 1.425781 15.601562 1.382812 15.625 1.34375 Z M 15.359375 2.625 L 15.515625 2.734375 L 15.546875 2.6875 L 15.390625 2.578125 Z M 14.984375 2.359375 C 14.910156 2.453125 14.914062 2.570312 15 2.71875 L 15.171875 2.484375 Z M 15.96875 3.359375 C 15.9375 3.390625 15.921875 3.453125 15.921875 3.546875 C 15.921875 3.648438 15.957031 3.734375 16.03125 3.796875 C 16.125 3.859375 16.1875 3.894531 16.21875 3.90625 C 16.21875 3.90625 16.28125 3.929688 16.40625 3.984375 C 16.414062 3.929688 16.398438 3.890625 16.359375 3.859375 L 16.3125 3.6875 C 16.300781 3.664062 16.351562 3.578125 16.46875 3.421875 C 16.40625 3.484375 16.332031 3.484375 16.25 3.421875 Z M 9.53125 -1.21875 L 9.4375 -1.078125 L 9.75 -0.84375 L 9.84375 -0.984375 Z M 8.765625 -0.921875 C 8.796875 -1.035156 8.820312 -1.113281 8.84375 -1.15625 C 8.71875 -1.382812 8.640625 -1.515625 8.609375 -1.546875 C 8.503906 -1.617188 8.40625 -1.640625 8.3125 -1.609375 C 8.226562 -1.578125 8.171875 -1.546875 8.140625 -1.515625 C 8.097656 -1.453125 8.09375 -1.359375 8.125 -1.234375 C 8.15625 -1.109375 8.21875 -1.015625 8.3125 -0.953125 C 8.351562 -0.921875 8.390625 -0.914062 8.421875 -0.9375 L 8.71875 -0.734375 Z M 13.828125 2.21875 L 13.75 2.34375 L 13.828125 2.390625 L 13.90625 2.265625 Z M 17 4.625 L 17.046875 4.5625 L 16.9375 4.484375 L 16.890625 4.546875 Z M 14.0625 2.5625 C 14.113281 2.625 14.128906 2.675781 14.109375 2.71875 L 14.40625 2.921875 L 14.46875 2.84375 Z M 12.640625 1.578125 L 12.53125 1.546875 L 12.515625 1.625 L 12.625 1.65625 Z M 14.59375 8.921875 C 14.65625 8.960938 14.71875 8.972656 14.78125 8.953125 L 15.171875 8.1875 L 15.53125 7.421875 L 15.53125 7.203125 L 15.578125 7.03125 C 15.617188 6.96875 15.710938 6.9375 15.859375 6.9375 C 15.765625 6.71875 15.75 6.570312 15.8125 6.5 C 15.9375 6.414062 16.007812 6.359375 16.03125 6.328125 C 16.125 6.203125 16.179688 6.046875 16.203125 5.859375 C 16.203125 5.722656 16.21875 5.640625 16.25 5.609375 C 16.300781 5.535156 16.359375 5.519531 16.421875 5.5625 C 16.441406 5.570312 16.472656 5.546875 16.515625 5.484375 C 16.566406 5.410156 16.601562 5.289062 16.625 5.125 L 16.296875 5.171875 L 16.015625 5.171875 L 15.953125 5.046875 L 16.171875 4.765625 C 16.234375 4.671875 16.347656 4.679688 16.515625 4.796875 L 16.578125 4.984375 L 16.734375 4.75 C 16.703125 4.664062 16.648438 4.570312 16.578125 4.46875 C 16.503906 4.375 16.445312 4.3125 16.40625 4.28125 C 16.3125 4.207031 16.175781 4.15625 16 4.125 C 15.820312 4.101562 15.707031 4.128906 15.65625 4.203125 C 15.644531 4.222656 15.640625 4.269531 15.640625 4.34375 L 15.6875 4.515625 C 15.59375 4.523438 15.546875 4.585938 15.546875 4.703125 L 15.609375 4.875 C 15.617188 4.882812 15.625 4.90625 15.625 4.9375 C 15.625 4.96875 15.625 4.984375 15.625 4.984375 C 15.539062 4.972656 15.460938 4.941406 15.390625 4.890625 C 15.210938 4.765625 15.085938 4.75 15.015625 4.84375 C 14.878906 4.945312 14.8125 5 14.8125 5 C 14.863281 5.007812 14.90625 5.039062 14.9375 5.09375 C 14.976562 5.144531 14.976562 5.1875 14.9375 5.21875 C 14.90625 5.257812 14.867188 5.265625 14.828125 5.234375 C 14.804688 5.222656 14.789062 5.222656 14.78125 5.234375 C 14.75 5.273438 14.71875 5.300781 14.6875 5.3125 L 14.53125 5.375 L 14.359375 5.640625 C 14.367188 5.660156 14.4375 5.773438 14.5625 5.984375 C 14.6875 6.191406 14.640625 6.273438 14.421875 6.234375 C 14.460938 6.296875 14.570312 6.382812 14.75 6.5 C 14.800781 6.550781 14.851562 6.578125 14.90625 6.578125 L 15.078125 6.703125 L 14.78125 7.109375 L 14.75 7.078125 L 14.734375 7.109375 L 14.703125 7.09375 L 14.734375 7.234375 C 14.742188 7.328125 14.75 7.375 14.75 7.375 C 14.71875 7.414062 14.722656 7.453125 14.765625 7.484375 C 14.765625 7.484375 14.769531 7.535156 14.78125 7.640625 L 14.640625 7.90625 C 14.609375 8.03125 14.617188 8.15625 14.671875 8.28125 C 14.648438 8.3125 14.617188 8.335938 14.578125 8.359375 L 14.546875 8.40625 C 14.515625 8.445312 14.503906 8.535156 14.515625 8.671875 C 14.535156 8.816406 14.5625 8.898438 14.59375 8.921875 Z M 6.28125 -2.234375 C 6.382812 -2.253906 6.382812 -2.3125 6.28125 -2.40625 L 6.25 -2.359375 Z M 7.1875 -0.90625 C 7.257812 -0.914062 7.289062 -0.972656 7.28125 -1.078125 C 7.207031 -1.066406 7.148438 -1.03125 7.109375 -0.96875 C 7.097656 -0.945312 7.113281 -0.921875 7.15625 -0.890625 C 7.164062 -0.878906 7.175781 -0.882812 7.1875 -0.90625 Z M 14.59375 4.84375 C 14.601562 4.851562 14.628906 4.828125 14.671875 4.765625 L 14.484375 4.625 C 14.441406 4.6875 14.429688 4.722656 14.453125 4.734375 C 14.453125 4.734375 14.460938 4.785156 14.484375 4.890625 C 14.492188 4.867188 14.503906 4.851562 14.515625 4.84375 C 14.535156 4.84375 14.5625 4.84375 14.59375 4.84375 Z M 6.125 -0.875 L 6.21875 -0.859375 L 6.3125 -1 C 6.351562 -1.0625 6.316406 -1.132812 6.203125 -1.21875 L 6.125 -1.234375 C 6.125 -1.234375 6.113281 -1.234375 6.09375 -1.234375 C 6.082031 -1.234375 6.078125 -1.234375 6.078125 -1.234375 L 5.984375 -1.109375 Z M 13.25 3.875 L 13.171875 3.984375 L 13.375 4.125 L 13.453125 4.015625 Z M 13.71875 4.734375 C 13.757812 4.679688 13.753906 4.628906 13.703125 4.578125 C 13.660156 4.535156 13.632812 4.507812 13.625 4.5 L 13.546875 4.609375 Z M 5.6875 -0.5 C 5.707031 -0.519531 5.738281 -0.523438 5.78125 -0.515625 C 5.820312 -0.515625 5.859375 -0.519531 5.890625 -0.53125 L 6.125 -0.453125 L 6.203125 -0.5625 C 6.191406 -0.632812 6.179688 -0.675781 6.171875 -0.6875 L 6.109375 -0.84375 C 5.910156 -0.726562 5.695312 -0.753906 5.46875 -0.921875 C 5.445312 -0.878906 5.441406 -0.8125 5.453125 -0.71875 C 5.460938 -0.625 5.492188 -0.554688 5.546875 -0.515625 C 5.566406 -0.492188 5.613281 -0.488281 5.6875 -0.5 Z M 13.234375 4.6875 C 13.171875 4.613281 13.128906 4.5625 13.109375 4.53125 L 13.015625 4.75 L 13.34375 4.90625 Z M 6.421875 0.875 C 6.472656 0.894531 6.519531 0.875 6.5625 0.8125 L 6.546875 0.71875 C 6.515625 0.695312 6.492188 0.691406 6.484375 0.703125 L 6.421875 0.65625 L 6.28125 0.609375 L 6.328125 0.78125 Z M 5.09375 0.203125 C 5.070312 0.179688 5.050781 0.140625 5.03125 0.078125 C 5.019531 0.0234375 5.003906 -0.0195312 4.984375 -0.0625 C 4.878906 -0.132812 4.800781 -0.128906 4.75 -0.046875 C 4.757812 -0.015625 4.816406 0.0234375 4.921875 0.078125 Z M 5.375 0.5625 C 5.46875 0.53125 5.523438 0.523438 5.546875 0.546875 C 5.597656 0.472656 5.59375 0.398438 5.53125 0.328125 C 5.363281 0.304688 5.273438 0.304688 5.265625 0.328125 Z M 13.03125 6.0625 C 13.0625 6.019531 13.0625 5.929688 13.03125 5.796875 L 12.828125 5.78125 L 12.703125 5.828125 Z M 12.34375 7.609375 C 12.34375 7.609375 12.351562 7.601562 12.375 7.59375 C 12.394531 7.59375 12.40625 7.59375 12.40625 7.59375 C 12.414062 7.4375 12.445312 7.320312 12.5 7.25 L 12.21875 7.046875 C 12.207031 7.148438 12.207031 7.253906 12.21875 7.359375 C 12.226562 7.472656 12.25 7.5625 12.28125 7.625 Z M 12.34375 7.609375 "/></g></g></g><g clip-path="url(#7df5e32144)"><g fill="#000000" fill-opacity="1"><g transform="translate(275.683407, 51.707986)"><g><path d="M 23.3125 -7.953125 C 23.457031 -8.054688 23.550781 -8.207031 23.59375 -8.40625 C 23.632812 -8.613281 23.601562 -8.789062 23.5 -8.9375 L 21.015625 -12.734375 C 20.742188 -13.117188 20.421875 -13.195312 20.046875 -12.96875 L 0.40625 -0.71875 C 0.226562 -0.59375 0.128906 -0.429688 0.109375 -0.234375 C 0.0664062 -0.0351562 0.101562 0.148438 0.21875 0.328125 L 8.4375 11.015625 C 8.695312 11.398438 9.019531 11.457031 9.40625 11.1875 L 13.640625 8.40625 C 13.804688 8.28125 13.90625 8.117188 13.9375 7.921875 C 13.976562 7.734375 13.941406 7.554688 13.828125 7.390625 L 9.171875 0.796875 Z M 21.65625 -8.703125 L 21.515625 -8.671875 L 21.484375 -8.75 L 21.625 -8.75 Z M 17.015625 -4.15625 L 16.9375 -4.203125 C 16.90625 -4.253906 16.910156 -4.289062 16.953125 -4.3125 C 16.929688 -4.34375 16.929688 -4.367188 16.953125 -4.390625 C 17.023438 -4.441406 17.085938 -4.425781 17.140625 -4.34375 C 17.171875 -4.300781 17.175781 -4.269531 17.15625 -4.25 L 17.1875 -4.203125 L 17.078125 -4.125 Z M 15.421875 -4.296875 C 15.429688 -4.273438 15.414062 -4.265625 15.375 -4.265625 C 15.300781 -4.273438 15.257812 -4.285156 15.25 -4.296875 L 15.125 -4.484375 L 15.265625 -4.59375 Z M 13.15625 -4.34375 C 13.15625 -4.34375 13.144531 -4.34375 13.125 -4.34375 C 13.113281 -4.351562 13.109375 -4.359375 13.109375 -4.359375 C 13.066406 -4.378906 13.039062 -4.398438 13.03125 -4.421875 C 13.03125 -4.453125 13.039062 -4.472656 13.0625 -4.484375 C 13.0625 -4.484375 13.066406 -4.5 13.078125 -4.53125 C 13.085938 -4.5625 13.085938 -4.585938 13.078125 -4.609375 L 13.203125 -4.515625 L 13.265625 -4.421875 Z M 8.53125 -2.390625 C 8.46875 -2.347656 8.367188 -2.351562 8.234375 -2.40625 C 8.097656 -2.457031 8.003906 -2.519531 7.953125 -2.59375 C 7.859375 -2.726562 7.828125 -2.820312 7.859375 -2.875 L 7.953125 -2.984375 C 8.015625 -3.023438 8.109375 -3.039062 8.234375 -3.03125 C 8.359375 -3 8.445312 -2.945312 8.5 -2.875 C 8.519531 -2.84375 8.546875 -2.765625 8.578125 -2.640625 C 8.609375 -2.515625 8.59375 -2.429688 8.53125 -2.390625 Z M 5.65625 -0.65625 C 5.632812 -0.695312 5.617188 -0.734375 5.609375 -0.765625 L 5.515625 -0.90625 L 5.671875 -1.015625 L 5.796875 -0.75 Z M 6.6875 1.109375 L 6.734375 1.078125 L 6.859375 1.328125 L 6.78125 1.390625 Z M 8.703125 4.234375 C 8.679688 4.242188 8.648438 4.242188 8.609375 4.234375 C 8.566406 4.234375 8.53125 4.210938 8.5 4.171875 C 8.425781 4.054688 8.398438 3.957031 8.421875 3.875 L 8.609375 3.890625 L 8.75 4.09375 Z M 7.453125 3.140625 L 7.421875 3.171875 L 7.34375 3.125 L 7.28125 3.171875 L 7.21875 3.09375 C 7.195312 3.050781 7.1875 3.015625 7.1875 2.984375 C 7.269531 2.953125 7.335938 2.960938 7.390625 3.015625 L 7.5 3.1875 Z M 6.953125 2.625 C 6.953125 2.6875 6.929688 2.710938 6.890625 2.703125 C 6.859375 2.703125 6.828125 2.679688 6.796875 2.640625 C 6.816406 2.585938 6.832031 2.554688 6.84375 2.546875 L 6.9375 2.484375 Z M 7.703125 3.90625 L 7.640625 3.703125 L 7.75 3.671875 L 7.828125 3.90625 Z M 5.203125 0.609375 C 5.148438 0.523438 5.109375 0.492188 5.078125 0.515625 L 5.0625 0.40625 C 5.050781 0.382812 5.066406 0.359375 5.109375 0.328125 C 5.191406 0.273438 5.257812 0.285156 5.3125 0.359375 L 5.296875 0.4375 C 5.285156 0.445312 5.296875 0.472656 5.328125 0.515625 Z M 5.296875 1.46875 C 5.265625 1.4375 5.210938 1.398438 5.140625 1.359375 C 5.234375 1.265625 5.328125 1.203125 5.421875 1.171875 C 5.453125 1.203125 5.460938 1.238281 5.453125 1.28125 L 5.5 1.328125 Z M 7.421875 4.109375 C 7.484375 4.210938 7.484375 4.34375 7.421875 4.5 C 7.367188 4.53125 7.289062 4.515625 7.1875 4.453125 C 7.09375 4.390625 7.023438 4.332031 6.984375 4.28125 C 6.878906 4.125 6.894531 4.003906 7.03125 3.921875 C 7.082031 3.878906 7.148438 3.898438 7.234375 3.984375 Z M 4.859375 1.546875 C 4.859375 1.546875 4.863281 1.535156 4.875 1.515625 C 4.882812 1.492188 4.890625 1.484375 4.890625 1.484375 C 4.921875 1.460938 4.929688 1.441406 4.921875 1.421875 C 4.921875 1.390625 4.921875 1.359375 4.921875 1.328125 C 4.921875 1.304688 4.929688 1.289062 4.953125 1.28125 C 4.972656 1.3125 5.003906 1.332031 5.046875 1.34375 C 5.066406 1.351562 5.078125 1.375 5.078125 1.40625 C 5.085938 1.445312 5.082031 1.472656 5.0625 1.484375 C 5.019531 1.515625 5.007812 1.550781 5.03125 1.59375 Z M 6.421875 4.546875 C 6.460938 4.515625 6.515625 4.523438 6.578125 4.578125 L 6.65625 4.6875 L 6.625 4.703125 L 6.65625 4.765625 L 6.546875 4.765625 Z M 3.1875 0.015625 C 3.320312 0.046875 3.429688 0.117188 3.515625 0.234375 L 3.546875 0.390625 L 3.5625 0.453125 L 3.359375 0.40625 Z M 3.0625 -0.0625 L 3 -0.09375 L 3.03125 -0.1875 L 3.078125 -0.125 Z M 9.53125 9.625 C 9.457031 9.613281 9.453125 9.585938 9.515625 9.546875 C 9.578125 9.503906 9.625 9.503906 9.65625 9.546875 C 9.664062 9.566406 9.65625 9.59375 9.625 9.625 C 9.601562 9.65625 9.570312 9.65625 9.53125 9.625 Z M 4.515625 2.578125 C 4.484375 2.554688 4.457031 2.53125 4.4375 2.5 C 4.40625 2.457031 4.367188 2.453125 4.328125 2.484375 C 4.347656 2.421875 4.347656 2.375 4.328125 2.34375 C 4.316406 2.320312 4.34375 2.289062 4.40625 2.25 C 4.4375 2.226562 4.457031 2.226562 4.46875 2.25 C 4.46875 2.25 4.472656 2.253906 4.484375 2.265625 C 4.503906 2.273438 4.515625 2.28125 4.515625 2.28125 L 4.609375 2.421875 L 4.640625 2.5 Z M 6.421875 5.765625 C 6.367188 5.722656 6.316406 5.660156 6.265625 5.578125 C 6.265625 5.554688 6.25 5.53125 6.21875 5.5 C 6.195312 5.476562 6.179688 5.457031 6.171875 5.4375 L 6.09375 5.328125 L 6.171875 5.265625 C 6.222656 5.253906 6.28125 5.265625 6.34375 5.296875 C 6.40625 5.328125 6.453125 5.367188 6.484375 5.421875 C 6.503906 5.453125 6.507812 5.492188 6.5 5.546875 L 6.515625 5.703125 Z M 2.90625 0.421875 L 2.75 0.3125 L 2.8125 0.28125 L 2.921875 0.375 Z M 4.875 3.390625 C 4.832031 3.421875 4.789062 3.40625 4.75 3.34375 C 4.707031 3.28125 4.664062 3.238281 4.625 3.21875 L 4.6875 3.171875 C 4.6875 3.171875 4.703125 3.160156 4.734375 3.140625 L 4.78125 3.265625 Z M 4.203125 2.734375 C 4.171875 2.734375 4.144531 2.710938 4.125 2.671875 L 4.21875 2.609375 L 4.265625 2.75 Z M 4.203125 2.734375 "/></g></g></g></g></svg>